<?xml version="1.0" encoding="utf-8"?>
<!-- Generator: Adobe Illustrator 16.0.0, SVG Export Plug-In . SVG Version: 6.00 Build 0)  -->
<!DOCTYPE svg PUBLIC "-//W3C//DTD SVG 1.1//EN" "http://www.w3.org/Graphics/SVG/1.1/DTD/svg11.dtd">
<svg version="1.1" id="Layer_1" xmlns="http://www.w3.org/2000/svg" xmlns:xlink="http://www.w3.org/1999/xlink" x="0px" y="0px"
	 width="200px" height="200px" viewBox="0 0 200 200" enable-background="new 0 0 200 200" xml:space="preserve">
<path d="M171.622,61.35c-0.065,0.038-0.16,0.085-0.226,0.123c-4.859,1.871,5.227,34.401-25.054,72.902
	c0,0-22.925,30.997-65.785,36.985c-17.426,2.424-42.979,4.503-68.77-14.945c0,0,26.143,3.364,52.321-16.093
	c0,0-26.9-2.236-33.288-24.652c0,0,12.374,0,14.95-0.367c0,0-28.739-9.737-28.367-37.212c0,0,9.699,4.296,15.108,3.731
	c0,0-24.263-18.121-9.882-48.021c0,0,26.163,36.611,74.384,37.381c0,0-4.135-31.77,23.537-41.489c0,0,23.554-9.728,39.246,8.601
	c0,0,18.309-2.99,22.446-8.601c0,0-1.161,11.242-13.822,19.448c0,0,11.58-0.01,19.79-4.502
	C188.212,44.638,176.642,59.094,171.622,61.35"/>
</svg>
